<svg id="Layer_1" data-name="Layer 1" xmlns="http://www.w3.org/2000/svg" viewBox="0 0 122.88 118.21"><title>24-hours-phone-support</title><path d="M45.34,6.14a4,4,0,0,0,3.23,7.24,67.7,67.7,0,0,1,7.19-3.1c4.54-1.51,3-8.5-2-7.67a44.76,44.76,0,0,0-8.4,3.53Zm7.34,52.75V52.68L62,43.16a18.79,18.79,0,0,0,1.49-1.65,7.68,7.68,0,0,0,1-1.49,3.46,3.46,0,0,0,.34-1.5,2.67,2.67,0,0,0-.32-1.39,1.79,1.79,0,0,0-1-.78,5.09,5.09,0,0,0-1.71-.24H53.16V29.9c1.32-.3,2.79-.57,4.42-.83a37.53,37.53,0,0,1,5.66-.38,13.09,13.09,0,0,1,5.58,1,5.76,5.76,0,0,1,2.91,2.86,11.06,11.06,0,0,1,.86,4.63,11.53,11.53,0,0,1-.52,3.59,11.3,11.3,0,0,1-1.51,3,21.45,21.45,0,0,1-2.4,2.82L63,51.87H73.4v7Zm36,0V53.36H76.24l-1.37-3.43,8.67-21h8L84.19,46.75H88.7V42.31l1.49-3.87h6.33v8.31h2.42v5.4l-2.42,1.21v5.53ZM29.91,54.57A90.17,90.17,0,0,0,43.23,73.24,76,76,0,0,0,64.35,88.82a2.13,2.13,0,0,0,1.82.09,7.76,7.76,0,0,0,2.54-1.85A28.38,28.38,0,0,0,71,84.22c3.39-4.46,7.59-10,13.52-7.23l.36.19,19.77,11.37.2.13a8.94,8.94,0,0,1,3.71,7.7,20.84,20.84,0,0,1-2.89,9.8,20.15,20.15,0,0,1-9.52,8.41,43.45,43.45,0,0,1-11.73,3.19,39.68,39.68,0,0,1-17.92-1.5,79.12,79.12,0,0,1-18-8.7l-.45-.29c-2.94-1.82-6.1-3.78-9.19-6.09-11.38-8.57-22.94-21-30.47-34.57C2.08,55.19-1.37,42.84.52,31.08c1-6.45,3.81-12.32,8.63-16.2,4.2-3.39,9.87-5.24,17.21-4.59a2.46,2.46,0,0,1,2,1.27L41,33a6.7,6.7,0,0,1,1.07,7.17,14.09,14.09,0,0,1-4.85,5.44c-.69.59-1.5,1.17-2.35,1.79-2.83,2.05-6.06,4.43-4.95,7.24l0-.07Zm78.77,21.65A4,4,0,0,0,115,80.94a4.54,4.54,0,0,0,.52-.7,45.31,45.31,0,0,0,3.56-7.95,4,4,0,0,0-7.1-3.46,4.31,4.31,0,0,0-.4.84,38.33,38.33,0,0,1-2.91,6.55Zm6.15-21.07a4,4,0,0,0,7.77,1.49,4.24,4.24,0,0,0,.15-.79,50.62,50.62,0,0,0-.12-8.7,4,4,0,0,0-7.81-.58,4.42,4.42,0,0,0-.1,1.41,40.94,40.94,0,0,1,.11,7.17Zm-3.92-21.22a4,4,0,0,0,7.24-3.28,51.17,51.17,0,0,0-4.21-7.51,4,4,0,1,0-6.58,4.46,43.63,43.63,0,0,1,3.55,6.33ZM97.36,17.07c4.17,3.05,9-3,4.78-6.35a53.9,53.9,0,0,0-7.27-4.59C90.79,4,86.82,9.57,90.49,12.71a4.16,4.16,0,0,0,.71.47,45.31,45.31,0,0,1,6.16,3.89Zm-20-8.52A4,4,0,0,0,79.7,1a4.08,4.08,0,0,0-1-.31A57,57,0,0,0,70.11,0a4,4,0,1,0,0,8,49.17,49.17,0,0,1,7.27.6Z"/></svg>