<?xml version="1.0" standalone="no"?>
<!DOCTYPE svg PUBLIC "-//W3C//DTD SVG 20010904//EN"
 "http://www.w3.org/TR/2001/REC-SVG-20010904/DTD/svg10.dtd">
<svg version="1.0" xmlns="http://www.w3.org/2000/svg"
 width="805.000000pt" height="805.000000pt" viewBox="0 0 805.000000 805.000000"
 preserveAspectRatio="xMidYMid meet">
<metadata>
Created by potrace 1.14, written by Peter Selinger 2001-2017
</metadata>
<g transform="translate(0.000000,805.000000) scale(0.100000,-0.100000)"
fill="#000000" stroke="none">
<path d="M3788 8046 c-1 -2 -39 -6 -83 -10 -165 -12 -177 -14 -505 -71 -108
-18 -417 -106 -515 -145 -11 -5 -65 -25 -120 -46 -55 -20 -131 -52 -170 -69
-38 -18 -95 -44 -125 -58 -30 -13 -98 -48 -150 -77 -122 -67 -122 -67 -205
-118 -105 -64 -108 -66 -119 -75 -6 -4 -54 -38 -106 -74 -52 -37 -102 -73
-110 -80 -116 -93 -164 -132 -209 -171 -79 -68 -309 -298 -361 -361 -25 -30
-54 -63 -65 -75 -12 -12 -41 -48 -65 -81 -25 -32 -52 -67 -60 -76 -25 -29 -36
-43 -56 -74 -10 -17 -21 -32 -25 -35 -3 -3 -40 -57 -81 -120 -108 -165 -278
-476 -278 -509 0 -6 -4 -11 -10 -11 -5 0 -10 -4 -10 -9 0 -5 -8 -26 -17 -47
-9 -22 -17 -41 -18 -44 0 -3 -7 -16 -15 -30 -7 -14 -13 -26 -12 -28 1 -1 -5
-18 -13 -38 -8 -20 -15 -42 -15 -48 0 -7 -4 -16 -9 -22 -4 -5 -18 -40 -31 -79
-12 -38 -28 -84 -35 -100 -7 -17 -16 -46 -21 -65 -4 -19 -9 -38 -10 -42 -1 -5
-2 -9 -4 -10 -1 -2 -3 -10 -5 -18 -2 -8 -14 -51 -26 -95 -11 -44 -23 -89 -25
-100 -2 -11 -6 -31 -9 -45 -3 -14 -8 -36 -11 -50 -5 -26 -7 -38 -24 -125 -10
-54 -18 -107 -26 -170 -3 -22 -7 -53 -9 -70 -27 -206 -27 -714 0 -900 2 -16 7
-48 9 -70 7 -58 16 -112 27 -175 6 -30 13 -68 15 -85 5 -25 24 -111 40 -177 2
-10 6 -26 8 -35 16 -72 83 -291 97 -315 5 -10 9 -25 9 -33 0 -8 4 -23 9 -33 5
-9 25 -58 44 -107 64 -166 145 -334 239 -499 37 -66 68 -121 68 -123 0 -2 4
-9 10 -16 25 -30 140 -209 140 -218 0 -5 4 -9 8 -9 5 0 24 -22 43 -50 19 -27
37 -50 42 -50 4 0 7 -6 7 -13 0 -7 8 -20 18 -29 9 -9 22 -23 27 -30 6 -7 21
-26 33 -43 97 -126 422 -451 540 -540 7 -5 21 -17 30 -25 9 -9 35 -29 57 -45
22 -16 42 -32 45 -35 3 -3 21 -17 40 -30 19 -13 37 -27 40 -30 3 -3 39 -27 80
-55 41 -27 77 -52 80 -55 8 -9 198 -121 275 -162 106 -58 305 -153 370 -178
11 -4 31 -12 45 -18 53 -23 224 -83 302 -107 46 -14 97 -29 113 -35 44 -13
225 -58 260 -63 17 -3 53 -10 80 -16 67 -14 139 -25 225 -36 25 -3 59 -7 77
-9 129 -16 209 -20 433 -20 224 0 408 7 468 19 10 2 43 6 73 10 30 3 61 8 69
10 8 2 40 7 70 10 30 4 58 9 61 11 4 2 22 6 40 9 19 2 45 7 59 10 14 2 35 7
48 9 12 3 25 7 30 9 4 3 23 8 42 11 19 3 60 13 90 21 30 9 64 18 75 20 12 3
48 14 80 26 33 11 70 22 82 25 12 2 43 13 68 24 26 11 54 20 64 20 9 0 21 4
26 9 6 5 53 26 105 46 99 39 316 144 435 210 100 55 319 195 323 206 2 5 10 9
18 9 8 0 14 5 14 10 0 6 6 10 14 10 8 0 16 3 18 8 2 4 39 34 83 66 44 33 90
69 102 80 12 12 39 35 59 51 121 95 337 312 480 480 105 123 364 485 364 508
0 3 18 34 39 70 48 78 134 245 179 347 19 41 42 93 52 115 46 102 178 501 194
590 2 11 9 38 14 60 17 63 55 282 76 432 28 210 29 685 1 918 -4 37 -17 134
-20 155 -2 8 -5 33 -9 55 -7 47 -12 74 -26 135 -5 25 -12 56 -14 70 -4 24 -22
98 -51 205 -26 101 -118 372 -144 430 -5 11 -29 65 -52 120 -24 55 -47 102
-51 103 -4 2 -8 9 -8 16 0 16 -62 140 -72 144 -5 2 -8 12 -8 23 0 10 -3 19 -8
19 -4 0 -16 20 -27 45 -11 25 -23 45 -26 45 -4 0 -9 8 -13 18 -3 9 -11 26 -18
37 -61 93 -128 198 -128 201 0 2 -6 12 -14 21 -8 10 -43 56 -77 103 -33 47
-68 91 -77 98 -9 6 -12 12 -7 12 4 0 -4 11 -19 25 -14 13 -26 28 -26 32 0 5
-9 15 -20 23 -11 8 -20 17 -20 21 0 10 -82 98 -226 243 -133 133 -143 143
-249 231 -33 28 -62 53 -65 56 -3 3 -23 19 -45 35 -23 16 -47 35 -55 41 -39
33 -111 83 -120 83 -6 0 -10 4 -10 9 0 5 -13 14 -30 21 -16 7 -30 16 -30 21 0
5 -17 18 -37 29 -21 11 -50 28 -65 38 -65 41 -171 102 -179 102 -5 0 -9 5 -9
12 0 6 -3 8 -6 5 -4 -4 -19 2 -33 11 -43 29 -315 158 -386 183 -22 8 -43 18
-46 22 -3 5 -10 9 -15 9 -13 1 -20 3 -99 31 -62 22 -110 39 -125 42 -3 1 -32
10 -65 20 -33 11 -62 20 -65 20 -3 1 -25 7 -50 14 -25 7 -54 15 -65 18 -48 11
-102 24 -125 28 -14 3 -43 9 -65 14 -70 16 -148 30 -200 36 -27 3 -59 8 -70
10 -11 2 -45 7 -75 10 -30 3 -77 8 -105 11 -53 6 -581 14 -587 10z"/>
</g>
</svg>
